<svg xmlns="http://www.w3.org/2000/svg" xmlns:xlink="http://www.w3.org/1999/xlink" width="1920" zoomAndPan="magnify" viewBox="0 0 1440 809.999993" height="1080" preserveAspectRatio="xMidYMid meet" version="1.0"><defs><clipPath id="98459e8c15"><path d="M 995 328 L 1376.75 328 L 1376.75 596 L 995 596 Z M 995 328 " clip-rule="nonzero"/></clipPath><clipPath id="a77ff495c8"><path d="M 284 134.34375 L 1074 134.34375 L 1074 349 L 284 349 Z M 284 134.34375 " clip-rule="nonzero"/></clipPath><clipPath id="c39a6a6d11"><path d="M 117.5 489 L 184 489 L 184 627 L 117.5 627 Z M 117.5 489 " clip-rule="nonzero"/></clipPath></defs><path fill="#2989e6" d="M 125.050781 489.472656 C 130 481.3125 134.949219 473.15625 139.90625 464.996094 C 142.265625 462.390625 141.582031 459.15625 141.546875 456.140625 C 141.410156 444.28125 146.292969 437.363281 159.042969 437.96875 C 161.796875 438.097656 163.984375 436.707031 166.214844 435.417969 C 168.808594 433.671875 171.3125 431.679688 174.140625 430.4375 C 200.199219 419.019531 209.046875 399.273438 205.339844 371.488281 C 203.550781 358.09375 199.816406 348.5 185.9375 345.128906 C 182.132812 343.464844 177.972656 343.308594 174.027344 342.277344 C 167.109375 340.464844 164.753906 336.402344 168.289062 329.734375 C 195.769531 311.101562 208.015625 281.089844 224.367188 254.195312 C 234.90625 236.863281 246.277344 220.089844 257.265625 203.050781 C 263.492188 195.601562 269.078125 187.730469 273.90625 179.292969 C 276.679688 174.457031 279.410156 169.359375 285.824219 168.394531 C 292.328125 171.152344 298.691406 172.085938 305.277344 168.214844 C 308.910156 166.082031 313.242188 165.457031 317.441406 165.773438 C 326.769531 166.46875 338.03125 165.667969 342.960938 174.519531 C 347.589844 182.828125 336.902344 187.578125 332.984375 193.769531 C 327.929688 201.757812 322.382812 209.597656 320.128906 218.722656 C 316.09375 235.070312 310.871094 250.757812 301.433594 264.867188 C 296.574219 272.121094 299.09375 278.886719 303.667969 285.136719 C 314.332031 299.707031 328.882812 311.171875 344.382812 318.191406 C 364.382812 327.25 387.902344 334.910156 408.808594 332.886719 C 438.226562 330.035156 466.128906 344.085938 495.058594 336.191406 C 497.996094 335.390625 501.183594 337.132812 503.117188 340.054688 C 506.597656 347.519531 505.074219 355.464844 505.390625 363.21875 C 506.867188 400.128906 508.503906 437.027344 511.980469 473.820312 C 514.191406 497.21875 525.722656 515.929688 539.960938 533.742188 C 545.546875 540.734375 553.886719 546.929688 552.230469 557.863281 C 544.6875 565.917969 534.558594 564.261719 525.660156 563.308594 C 488.695312 559.355469 451.554688 561.816406 414.613281 559.269531 C 407.851562 557.710938 404.511719 552.382812 401.210938 546.976562 C 377.203125 507.585938 342.566406 485.011719 296.160156 482.933594 C 260.597656 481.335938 229.628906 493.570312 203.523438 518.03125 C 197.097656 524.058594 192.570312 532.140625 184.167969 536.0625 C 164.109375 534.328125 147.160156 525.222656 131.585938 513.277344 C 123.691406 507.238281 123.371094 498.480469 125.050781 489.472656 Z M 125.050781 489.472656 " fill-opacity="1" fill-rule="nonzero"/><g clip-path="url(#98459e8c15)"><path fill="#2688e6" d="M 1104.027344 332.515625 C 1149.921875 343.050781 1195.34375 355.199219 1239.171875 372.683594 C 1253.519531 384.765625 1253.335938 387.625 1237.800781 395.089844 C 1228.460938 401.527344 1234.296875 407.949219 1238.359375 413.597656 C 1256.246094 438.484375 1281.105469 453.855469 1309.304688 464.503906 C 1320.925781 468.894531 1333.207031 471.359375 1344.527344 476.632812 C 1348.796875 481.902344 1352.433594 487.882812 1357.441406 492.308594 C 1381.273438 513.402344 1376.875 541.074219 1375.566406 567.960938 C 1375.140625 576.726562 1367.675781 582.433594 1364.117188 589.90625 C 1345.066406 599.542969 1324.902344 593.53125 1305.230469 594.144531 C 1303.496094 593.847656 1301.824219 593.257812 1300.269531 592.441406 C 1292.757812 585.640625 1292.847656 575.550781 1289.652344 566.9375 C 1268.398438 509.5625 1224.8125 482.605469 1168.777344 482.164062 C 1113.515625 481.730469 1068.589844 517.824219 1051.980469 566.054688 C 1049.042969 574.582031 1049.378906 585.179688 1039.074219 589.867188 C 1024.335938 592.082031 1010.136719 590.390625 996.542969 584.15625 C 992.941406 570.339844 998.21875 557.191406 1000.820312 544.214844 C 1010.902344 493.980469 1010.71875 443.796875 1003.398438 393.382812 C 1002.644531 388.175781 1002.332031 382.988281 1003.472656 377.835938 C 1007.085938 368.085938 1016.28125 368.511719 1024.199219 366.699219 C 1029.28125 365.535156 1035.484375 365.390625 1037.75 360.207031 C 1040.464844 354.011719 1033.609375 351.546875 1030.574219 347.730469 C 1026.761719 342.925781 1020.972656 339.414062 1021.023438 332.230469 C 1023.117188 326.796875 1026.941406 327.507812 1031.015625 329.496094 C 1033.796875 330.859375 1036.003906 333.078125 1038.5 334.867188 C 1055.496094 347.019531 1059.15625 346.804688 1073.976562 332.855469 C 1083.941406 327.527344 1093.953125 326.746094 1104.027344 332.515625 Z M 1104.027344 332.515625 " fill-opacity="1" fill-rule="nonzero"/></g><path fill="#1c6ab4" d="M 997.765625 583.628906 C 1012.449219 582.679688 1026.605469 588.394531 1041.320312 587.046875 C 1044.796875 590.042969 1045.816406 594.230469 1045.566406 598.355469 C 1044.527344 615.523438 1049.273438 632.441406 1047.550781 649.609375 C 1042.320312 654.847656 1035.65625 652.632812 1029.65625 652.632812 C 838.175781 652.679688 646.695312 652.558594 455.21875 652.492188 C 433.273438 652.488281 411.328125 652.617188 389.382812 652.691406 C 387.324219 649.414062 390.011719 648.445312 392.058594 647.152344 C 413.089844 643.5 412.707031 643.433594 416.605469 622.59375 C 419.773438 605.640625 415.828125 589.621094 412.0625 573.453125 C 410.695312 567.566406 406.890625 561.863281 410.484375 555.53125 C 421.949219 555.5625 433.441406 556.167969 444.871094 555.523438 C 475.617188 553.796875 506.085938 558.90625 536.746094 558.664062 C 541.703125 558.625 547.308594 560.65625 551.335938 555.667969 C 561.078125 556.476562 564.171875 565.234375 569.292969 571.246094 C 573.367188 576.027344 577.730469 580.476562 582.113281 584.976562 C 601.082031 606.460938 625.089844 614.394531 653.390625 614.261719 C 756.84375 613.769531 860.300781 614.070312 963.753906 614.058594 C 984.773438 614.058594 984.726562 614.003906 991.273438 594.003906 C 992.558594 590.070312 993.847656 585.988281 997.765625 583.628906 Z M 997.765625 583.628906 " fill-opacity="1" fill-rule="nonzero"/><g clip-path="url(#a77ff495c8)"><path fill="#2c84db" d="M 1073.253906 334.976562 C 1067.1875 349.203125 1062.011719 351.4375 1048.640625 345.71875 C 1041.925781 342.847656 1036.015625 338.925781 1031.046875 333.5 C 1028.511719 330.734375 1025.5 328.300781 1022.390625 333.09375 C 1015.109375 334.484375 1011.679688 327.519531 1004.585938 325.246094 C 1003.511719 331.292969 1004.757812 338.597656 998.730469 342.949219 C 981.238281 348.683594 963.78125 349.109375 946.351562 342.78125 C 939.949219 330.648438 942.097656 317.769531 943.609375 305.128906 C 944.679688 296.152344 951.871094 294.289062 959.527344 293.90625 C 962.28125 293.222656 965.257812 295.246094 968.078125 293.359375 C 965.957031 291.929688 963.550781 291.277344 961.441406 289.976562 C 921.777344 259.105469 881.988281 228.625 837.09375 205.320312 C 801.097656 186.632812 762.695312 178.214844 722.914062 173.695312 C 658.832031 166.421875 594.535156 167.179688 530.246094 167.574219 C 527.695312 167.652344 525.191406 168.53125 522.675781 168.570312 C 509.058594 168.769531 500.105469 173.566406 501.210938 189.144531 C 501.355469 191.148438 499.914062 192.960938 498.5625 194.550781 C 490.203125 195.074219 491.265625 188.183594 491.003906 183.710938 C 490.40625 173.480469 485.5625 170.074219 475.75 171.234375 C 440.003906 175.457031 404.183594 179.003906 368.707031 185.398438 C 355.902344 187.703125 346.519531 193.605469 339.875 204.589844 C 328.199219 223.878906 320.25 244.910156 311.226562 265.429688 C 308.851562 270.824219 307.800781 277.066406 311.949219 281.863281 C 327.269531 299.589844 341.800781 317.039062 368.566406 319.628906 C 407.996094 323.441406 447.539062 326.371094 486.863281 331.371094 C 491.496094 331.960938 496.300781 331.738281 500.402344 334.578125 C 501.855469 335.964844 501.972656 337.453125 500.757812 339.042969 C 489.957031 338.132812 479.882812 346.46875 468.878906 341.871094 C 455.742188 336.378906 440.5 342.390625 427.894531 334.097656 C 426.054688 332.886719 423.773438 333.75 422.074219 335.089844 C 413.890625 341.523438 405.234375 339.539062 396.933594 335.964844 C 388.375 332.285156 378.078125 334.3125 370.5 327.535156 C 369.574219 326.707031 367.449219 326.769531 366 327.054688 C 351.519531 329.878906 340.351562 323.414062 330.390625 314.15625 C 325.402344 309.523438 320.714844 304.65625 314.273438 302.007812 C 309.777344 300.160156 306.589844 296.882812 303.777344 292.953125 C 291.3125 275.589844 291.507812 274.570312 302.34375 255.535156 C 307.4375 246.59375 311.460938 237.324219 313.503906 226.679688 C 317.257812 207.113281 328.367188 190.699219 343.265625 175.332031 C 327.578125 170.582031 313.75 164.4375 299.492188 175.792969 C 291.539062 182.125 288.945312 173.984375 285.226562 169.476562 C 282.109375 161.082031 289.464844 160.15625 293.984375 157.210938 C 313.636719 151.527344 334.023438 150.253906 354.15625 147.824219 C 451.800781 136.015625 549.878906 132.324219 648.113281 135.570312 C 704.964844 137.449219 761.820312 141.316406 817.015625 156.894531 C 828.945312 160.261719 841.46875 162.460938 851.90625 169.992188 C 865.335938 182.613281 882.875 188.589844 898.058594 198.460938 C 957.578125 237.144531 1012.640625 281.667969 1067.832031 326.046875 C 1070.679688 328.347656 1073.558594 330.726562 1073.253906 334.976562 Z M 1073.253906 334.976562 " fill-opacity="1" fill-rule="nonzero"/></g><path fill="#2b2a2a" d="M 1289.371094 649.664062 C 1287.292969 649.675781 1285.074219 650.167969 1283.152344 649.621094 C 1275.121094 647.335938 1271.324219 650.984375 1267.703125 657.972656 C 1247.316406 697.375 1213.910156 717.027344 1170.210938 716.625 C 1125.753906 716.21875 1092.875 694.800781 1072.933594 654.800781 C 1070.015625 648.953125 1067.023438 645.46875 1060.355469 646.152344 C 1061.332031 639.492188 1061.582031 632.992188 1060.539062 626.128906 C 1050.421875 559.476562 1100.628906 496.199219 1167.996094 495.714844 C 1246.722656 495.148438 1293.066406 561.691406 1283.160156 628.316406 C 1282.136719 635.1875 1279.132812 641.214844 1274.386719 645.464844 C 1280.03125 643.363281 1286.261719 639.878906 1289.371094 649.664062 Z M 1289.371094 649.664062 " fill-opacity="1" fill-rule="nonzero"/><path fill="#2a2b2b" d="M 391.625 649.492188 C 390.875 650.5625 390.125 651.632812 389.382812 652.699219 C 368.878906 697.269531 327.992188 721.070312 279.953125 716.398438 C 233.863281 711.910156 197.445312 679.472656 186.167969 632.941406 C 185.4375 629.945312 184.230469 627.066406 183.242188 624.128906 C 182.105469 622.808594 181.277344 621.316406 180.738281 619.664062 C 171.839844 562.847656 215.664062 502.644531 280.664062 495.921875 C 350.074219 488.75 423.242188 555.898438 399.957031 634.746094 C 398.292969 640.339844 396.277344 645.640625 391.625 649.492188 Z M 391.625 649.492188 " fill-opacity="1" fill-rule="nonzero"/><path fill="#13181c" d="M 1289.371094 649.664062 C 1285.179688 644.167969 1278.265625 648.375 1273.402344 645.242188 C 1294.820312 598.75 1264.996094 534.644531 1228.605469 516.691406 C 1210.542969 507.78125 1192.554688 499.175781 1172.6875 499.464844 C 1127.34375 500.128906 1087.601562 524.570312 1069.777344 572.035156 C 1062.425781 591.605469 1060.800781 611.371094 1066.089844 631.691406 C 1067.648438 637.679688 1068.636719 643.867188 1060.359375 646.160156 C 1056.113281 647.390625 1051.421875 646.988281 1047.558594 649.617188 C 1040.734375 635.6875 1040.691406 620.6875 1040.722656 605.707031 C 1040.734375 599.484375 1041.117188 593.269531 1041.328125 587.046875 C 1042.898438 581.546875 1044.46875 576.046875 1046.03125 570.550781 C 1063.054688 510.6875 1125.230469 471.238281 1187.316406 479.273438 C 1249.542969 487.328125 1292.835938 537.960938 1299.289062 589.417969 C 1306.25 600.746094 1302.167969 613.28125 1303.238281 625.253906 C 1303.390625 628.859375 1302.863281 632.402344 1302.054688 635.902344 C 1300.582031 640.792969 1299.5 645.863281 1296.140625 649.976562 C 1293.761719 652.421875 1291.585938 650.613281 1289.371094 649.664062 Z M 1289.371094 649.664062 " fill-opacity="1" fill-rule="nonzero"/><path fill="#14181d" d="M 391.625 649.492188 C 392.359375 640.628906 396.085938 632.488281 398.058594 623.90625 C 405.070312 593.355469 395.996094 567.394531 377.816406 543.644531 C 355.074219 513.941406 323.96875 498.722656 287.328125 499.664062 C 254.21875 500.511719 226.796875 515.882812 205.800781 542.703125 C 187.246094 566.402344 182.585938 593.25 183.464844 622.027344 C 179.371094 623.652344 175.25 623.433594 171.117188 622.179688 C 168.230469 622.160156 165.347656 622.140625 162.46875 622.121094 C 161.265625 621.128906 159.707031 620.179688 159.542969 618.609375 C 156.285156 587.0625 160.542969 557.640625 183.867188 533.691406 C 200.316406 514.558594 218.292969 497.480469 242.394531 488.046875 C 306.203125 463.058594 374.3125 488.132812 406.675781 548.710938 C 407.902344 551.003906 409.222656 553.25 410.5 555.515625 C 414.542969 567.785156 418.214844 580.042969 420.609375 592.867188 C 423.761719 609.820312 420.195312 625.765625 417.558594 642.074219 C 416.363281 649.472656 412.300781 651.292969 405.601562 650.410156 C 400.976562 649.808594 396.277344 649.78125 391.625 649.492188 Z M 391.625 649.492188 " fill-opacity="1" fill-rule="nonzero"/><path fill="#fdd932" d="M 1344.527344 476.632812 C 1299.421875 470.46875 1261.683594 451.253906 1234.039062 414.222656 C 1232.191406 411.75 1230.714844 408.941406 1229.457031 406.109375 C 1225.496094 397.171875 1225.765625 396.738281 1236.503906 392.171875 C 1254.253906 386.648438 1271.023438 390.320312 1287.40625 397.605469 C 1315.652344 417.304688 1334.371094 443.875 1344.527344 476.632812 Z M 1344.527344 476.632812 " fill-opacity="1" fill-rule="nonzero"/><g clip-path="url(#c39a6a6d11)"><path fill="#2069b1" d="M 183.859375 533.695312 C 169.386719 558.136719 161.679688 584.496094 161.554688 612.96875 C 161.542969 616.023438 162.140625 619.078125 162.453125 622.125 C 161.460938 627.105469 158.976562 628.289062 154.871094 625.015625 C 145.378906 617.46875 136.929688 609 131.175781 598.144531 C 123.988281 584.570312 119.183594 570.175781 118.347656 554.847656 C 117.519531 539.714844 117.800781 524.523438 117.511719 509.351562 C 117.367188 501.6875 119.328125 494.878906 125.050781 489.464844 C 127.285156 508.375 139.097656 518.117188 156.449219 523.25 C 165.792969 526.027344 173.320312 533.835938 183.859375 533.695312 Z M 183.859375 533.695312 " fill-opacity="1" fill-rule="nonzero"/></g><path fill="#ccf3fa" d="M 1073.253906 334.976562 C 1028.28125 298.605469 983.070312 262.527344 936.085938 228.761719 C 911.109375 210.8125 885.511719 193.808594 858.039062 179.828125 C 853.890625 177.71875 848.589844 176.640625 851.90625 170.011719 C 885.910156 184.640625 918.6875 201.5625 950.351562 220.792969 C 988.242188 243.800781 1024.515625 269.15625 1060.230469 295.292969 C 1075.660156 306.582031 1091.066406 318.191406 1104.019531 332.519531 C 1093.765625 333.335938 1083.507812 334.15625 1073.253906 334.976562 Z M 1073.253906 334.976562 " fill-opacity="1" fill-rule="nonzero"/><path fill="#ccf2f8" d="M 259.371094 204.148438 C 254.472656 216.390625 245.613281 226.210938 239.027344 237.429688 C 229.253906 254.078125 219.0625 270.496094 209.683594 287.371094 C 200.167969 304.476562 189.644531 320.425781 171.5625 329.707031 C 166.4375 331.769531 161.933594 337.574219 155.605469 332.347656 C 155.113281 326.429688 156.945312 321.523438 160.199219 316.351562 C 178.722656 286.910156 196.070312 256.710938 218.175781 229.664062 C 226.375 219.628906 233.554688 208.75 243.003906 199.753906 C 246.421875 196.5 249.832031 193.242188 250.089844 188.070312 C 255.976562 187.597656 256.003906 193.105469 258.4375 196.1875 C 259.683594 198.714844 261.046875 201.265625 259.371094 204.148438 Z M 259.371094 204.148438 " fill-opacity="1" fill-rule="nonzero"/><path fill="#1d68b5" d="M 1298.132812 637.539062 C 1298.453125 634.414062 1298.777344 631.277344 1299.097656 628.152344 C 1303.007812 615.785156 1298.269531 602.824219 1301.675781 590.425781 C 1322.488281 590.253906 1343.308594 590.082031 1364.125 589.910156 C 1360.738281 595.679688 1362.199219 600.707031 1366.851562 604.898438 C 1371.992188 609.53125 1371.328125 614.675781 1369.246094 620.4375 C 1364.316406 634.066406 1355.6875 643.570312 1340.949219 646.1875 C 1326.714844 648.710938 1312.480469 651.585938 1297.871094 650.089844 C 1297.285156 645.890625 1296.96875 641.699219 1298.132812 637.539062 Z M 1298.132812 637.539062 " fill-opacity="1" fill-rule="nonzero"/><path fill="#467ac2" d="M 155.613281 332.34375 C 161.21875 333.191406 165.898438 328.460938 171.570312 329.703125 C 168.835938 334.484375 167.382812 338.636719 175.480469 338.941406 C 179.523438 339.089844 183.972656 337.96875 187.113281 341.851562 C 173.59375 347.691406 169.507812 358.175781 168.09375 372.574219 C 166.410156 389.734375 167.398438 407.09375 164.039062 424.125 C 163.007812 429.339844 164.730469 434.484375 167.910156 438.933594 C 166.09375 443.257812 162.507812 442.558594 158.871094 442.355469 C 148.042969 441.746094 145.53125 443.566406 143.453125 453.859375 C 142.671875 457.738281 143.886719 462.160156 139.898438 464.992188 C 140.988281 438.375 141.882812 411.738281 143.261719 385.128906 C 143.914062 372.625 145.445312 360.160156 146.695312 347.699219 C 147.339844 341.285156 148.832031 335.246094 155.613281 332.34375 Z M 155.613281 332.34375 " fill-opacity="1" fill-rule="nonzero"/><path fill="#2d7fd1" d="M 256.261719 197.90625 C 251.890625 196.074219 253.75 190.339844 250.097656 188.058594 C 247.644531 182.390625 245.152344 176.738281 242.761719 171.046875 C 240.066406 164.636719 242.234375 161.21875 249.195312 160.675781 C 261.570312 159.707031 273.941406 158.644531 286.308594 157.625 C 282.078125 172.96875 271.921875 184.929688 263.179688 197.65625 C 261.585938 199.972656 258.640625 199.550781 256.261719 197.90625 Z M 256.261719 197.90625 " fill-opacity="1" fill-rule="nonzero"/><path fill="#4179a3" d="M 1287.40625 397.613281 C 1270.4375 395.800781 1253.46875 393.984375 1236.503906 392.179688 C 1238.3125 387.507812 1244.128906 390.71875 1246.453125 387.210938 C 1246.574219 381.023438 1240.671875 377.960938 1239.171875 372.679688 C 1256.78125 378.039062 1273.007812 386.054688 1287.40625 397.613281 Z M 1287.40625 397.613281 " fill-opacity="1" fill-rule="nonzero"/><path fill="#153d81" d="M 256.261719 197.90625 C 261.960938 197.894531 264.121094 193.625 266.605469 189.550781 C 273.113281 178.867188 279.742188 168.257812 286.316406 157.625 C 288.8125 156.441406 291.382812 156.527344 293.992188 157.238281 C 291.3125 161.496094 286.585938 164.292969 285.230469 169.503906 C 280.078125 177.335938 274.945312 185.179688 269.765625 193 C 266.925781 197.285156 264.941406 202.394531 259.375 204.148438 C 258.332031 202.066406 257.300781 199.984375 256.261719 197.90625 Z M 256.261719 197.90625 " fill-opacity="1" fill-rule="nonzero"/><path fill="#2b2a2a" d="M 1298.132812 637.539062 C 1298.046875 641.71875 1297.960938 645.898438 1297.871094 650.082031 C 1297.855469 650.082031 1296.960938 650.503906 1296.960938 650.503906 C 1296.960938 650.503906 1296.128906 649.972656 1296.132812 649.972656 C 1295.996094 645.699219 1294.550781 641.21875 1298.132812 637.539062 Z M 1298.132812 637.539062 " fill-opacity="1" fill-rule="nonzero"/><path fill="#2069b1" d="M 171.109375 622.183594 C 175.230469 622.132812 179.351562 622.085938 183.464844 622.035156 C 183.644531 622.761719 183.578125 623.464844 183.242188 624.136719 C 179.042969 624.425781 174.835938 624.800781 171.109375 622.183594 Z M 171.109375 622.183594 " fill-opacity="1" fill-rule="nonzero"/><path fill="#de2227" d="M 167.917969 438.933594 C 162.644531 439.234375 158.683594 438.203125 159.234375 431.496094 C 161.316406 406.171875 162.886719 380.800781 165.523438 355.535156 C 166.457031 346.582031 169.433594 341.074219 180.960938 342.472656 C 182.960938 342.71875 185.0625 342.082031 187.121094 341.851562 C 205.851562 347.066406 207.355469 348.652344 208.449219 367.160156 C 209.058594 377.585938 208.816406 388.058594 209.367188 398.492188 C 209.828125 407.210938 206.273438 413.257812 199.238281 418.277344 C 189.027344 425.542969 179.003906 433.03125 167.917969 438.933594 Z M 167.917969 438.933594 " fill-opacity="1" fill-rule="nonzero"/><path fill="#1a5194" d="M 500.761719 339.058594 C 500.992188 338.277344 500.980469 337.492188 500.738281 336.71875 C 496.261719 329.648438 495.605469 322.402344 499.746094 314.9375 C 504.757812 311.128906 505.96875 315.726562 507.132812 318.722656 C 509.183594 324.011719 509.167969 329.753906 509.6875 335.351562 C 512.191406 384.597656 510.429688 434.097656 518.566406 483.019531 C 520.953125 497.34375 528.347656 509.175781 536.734375 520.589844 C 545.980469 533.171875 555.640625 545.429688 565.683594 557.375 C 569.445312 565.246094 578.964844 569.820312 578.796875 579.984375 C 578.480469 581.632812 577.664062 582.992188 576.371094 584.066406 C 566.03125 576.359375 560.617188 564.3125 551.34375 555.667969 C 541.109375 541.875 530.949219 528.03125 520.617188 514.3125 C 515.464844 507.472656 512.230469 499.6875 510.902344 491.503906 C 507.578125 470.988281 504.390625 450.449219 503.886719 429.570312 C 503.15625 399.394531 501.835938 369.230469 500.761719 339.058594 Z M 500.761719 339.058594 " fill-opacity="1" fill-rule="nonzero"/><path fill="#1a4992" d="M 249.125 423.980469 C 230.65625 415.109375 224.1875 400.910156 231.011719 384.222656 C 238.71875 365.359375 254.589844 359.136719 275.269531 366.875 C 274.800781 367.460938 274.328125 368.046875 273.867188 368.636719 C 269.746094 371.265625 264.941406 370.746094 260.421875 371.546875 C 249.847656 373.421875 242.550781 379.4375 239.269531 389.582031 C 236.273438 398.859375 239.257812 406.625 246.476562 413.164062 C 249.703125 416.09375 254.460938 418.480469 253.347656 424.269531 C 251.878906 425.035156 250.46875 424.898438 249.125 423.980469 Z M 249.125 423.980469 " fill-opacity="1" fill-rule="nonzero"/><path fill="#174284" d="M 275.269531 366.871094 C 295.121094 376.691406 300.421875 395.253906 288.039062 411.59375 C 287.5 411.082031 286.953125 410.574219 286.40625 410.0625 C 290.238281 393.75 279.972656 381.285156 274.761719 367.441406 Z M 275.269531 366.871094 " fill-opacity="1" fill-rule="nonzero"/><path fill="#174284" d="M 249.125 423.980469 C 250.496094 423.859375 251.871094 423.75 253.242188 423.628906 C 264.726562 419.78125 275.65625 414.457031 287.269531 410.957031 C 287.269531 410.957031 288.03125 411.59375 288.03125 411.601562 C 278.96875 427.710938 268.011719 431.191406 249.125 423.980469 Z M 249.125 423.980469 " fill-opacity="1" fill-rule="nonzero"/><path fill="#144780" d="M 576.363281 584.066406 C 576.488281 582.722656 576.605469 581.378906 576.730469 580.035156 C 585.710938 579.667969 590.71875 586.566406 596.539062 591.441406 C 610.019531 602.742188 625.089844 607.59375 642.757812 607.539062 C 748.433594 607.21875 854.117188 607.402344 959.792969 607.355469 C 982.542969 607.347656 982.570312 607.210938 987.558594 584.808594 C 997.699219 547.269531 1003.167969 508.867188 1004.652344 470.214844 C 1005.527344 447.421875 1002.609375 424.332031 1000.414062 401.457031 C 999.566406 392.605469 997.820312 383.789062 1001.644531 375.1875 C 1002.722656 373.316406 1004.304688 372.683594 1006.375 373.296875 C 1008.40625 393.433594 1011.3125 413.527344 1012.246094 433.714844 C 1013.296875 456.542969 1013.867188 479.347656 1011.121094 502.316406 C 1007.855469 529.667969 1002.839844 556.632812 997.773438 583.636719 C 996.203125 591.792969 994.664062 599.953125 993.046875 608.09375 C 991.679688 614.976562 988.519531 619.695312 980.382812 618.445312 C 978.339844 618.136719 976.207031 618.382812 974.117188 618.382812 C 865.933594 618.375 757.746094 618.125 649.558594 618.511719 C 619.261719 618.625 594.675781 608.472656 576.363281 584.066406 Z M 576.363281 584.066406 " fill-opacity="1" fill-rule="nonzero"/><path fill="#16202a" d="M 1006.367188 373.296875 C 1005.351562 373.144531 1004.378906 373.296875 1003.449219 373.75 C 995.078125 379.675781 986.152344 378.492188 977.109375 375.824219 C 971.804688 372.808594 971.582031 367.347656 970.601562 362.265625 C 970.492188 360.632812 970.820312 359.070312 971.527344 357.597656 C 981.691406 352.441406 994.652344 351.5 1000.011719 338.960938 C 1000.40625 332.328125 1000.800781 325.699219 1001.242188 318.222656 C 1010.304688 320.726562 1014.914062 329.078125 1022.386719 333.105469 C 1027.570312 340.253906 1034.523438 345.609375 1040.898438 351.582031 C 1047.675781 357.933594 1047.105469 360.429688 1039.242188 365.765625 C 1034.375 369.070312 1029.015625 370.410156 1023.246094 370.9375 C 1017.59375 371.449219 1011.996094 372.488281 1006.367188 373.296875 Z M 1006.367188 373.296875 " fill-opacity="1" fill-rule="nonzero"/><path fill="#e2ea82" d="M 1059.300781 430.484375 C 1049.101562 430.136719 1045.386719 427.988281 1045.355469 421.621094 C 1045.316406 414.484375 1050.324219 411.429688 1061.714844 411.792969 C 1064.316406 411.875 1066.9375 412.105469 1069.488281 412.597656 C 1074.550781 413.578125 1078.578125 415.917969 1077.910156 421.890625 C 1077.316406 427.164062 1074.367188 430.484375 1068.628906 430.484375 C 1066.003906 430.484375 1063.398438 430.484375 1059.300781 430.484375 Z M 1059.300781 430.484375 " fill-opacity="1" fill-rule="nonzero"/><path fill="#2b2a2a" d="M 1301.667969 590.425781 C 1300.664062 602.988281 1304.644531 615.898438 1299.09375 628.152344 C 1299.15625 615.242188 1299.21875 602.324219 1299.28125 589.414062 C 1300.078125 589.746094 1300.871094 590.089844 1301.667969 590.425781 Z M 1301.667969 590.425781 " fill-opacity="1" fill-rule="nonzero"/><path fill="#c6eef1" d="M 972.929688 357.847656 C 972.996094 359.203125 973.054688 360.550781 973.121094 361.902344 C 973.527344 366.535156 975.65625 371.476562 970.78125 375.1875 C 942.566406 377.652344 914.683594 372.828125 886.726562 370.738281 C 838.402344 367.125 790.113281 363.050781 741.800781 359.261719 C 681.019531 354.492188 620.242188 349.90625 559.363281 346.582031 C 553.53125 346.257812 547.976562 344.976562 543.679688 340.550781 C 532.730469 323.105469 537.378906 303.011719 534.761719 284.234375 C 529.964844 249.761719 528.617188 214.851562 525.929688 180.117188 C 525.488281 174.386719 524.75 168.597656 529.609375 164.082031 C 597.078125 161.960938 664.484375 162.722656 731.660156 170.015625 C 784.003906 175.695312 832.089844 193.296875 876.078125 222.410156 C 907.066406 242.921875 937.097656 264.65625 965.628906 288.445312 C 968.566406 291.476562 968.609375 294.578125 965.871094 297.75 C 947.296875 298.328125 947.160156 298.328125 946.871094 316.160156 C 946.730469 324.871094 947.199219 333.589844 947.394531 342.308594 C 953.015625 352.230469 966.480469 349.28125 972.929688 357.847656 Z M 972.929688 357.847656 " fill-opacity="1" fill-rule="nonzero"/><path fill="#c6eff1" d="M 501.945312 314.828125 C 500.386719 322.058594 503.570312 329.550781 500.742188 336.710938 C 455.097656 332.257812 409.46875 327.742188 363.824219 323.363281 C 349.792969 322.015625 337.597656 317.34375 328.136719 306.3125 C 322.707031 299.984375 316.738281 294.085938 310.660156 288.367188 C 304.304688 282.394531 301.9375 276.496094 305.882812 267.660156 C 316.863281 243.066406 326.152344 217.730469 341.1875 195.054688 C 345.972656 187.84375 352.234375 184.148438 360.117188 182.660156 C 390.34375 176.929688 420.777344 172.664062 451.390625 169.601562 C 461.242188 168.617188 471.070312 167.21875 480.941406 166.542969 C 494.886719 165.582031 494.835938 165.800781 495.503906 179.25 C 495.734375 183.886719 494.839844 188.664062 496.890625 193.125 C 502.128906 196.277344 502.847656 201.726562 502.65625 206.804688 C 501.539062 236.460938 506.613281 265.859375 506.121094 295.46875 C 506 302.152344 506.761719 309.125 501.945312 314.828125 Z M 501.945312 314.828125 " fill-opacity="1" fill-rule="nonzero"/><path fill="#222323" d="M 501.945312 314.828125 C 500.261719 274.273438 498.574219 233.730469 496.890625 193.15625 C 499.179688 184.65625 492.863281 173.195312 499.601562 168.027344 C 505.601562 163.425781 516.320312 164.953125 524.96875 163.875 C 526.488281 163.683594 528.0625 163.984375 529.617188 164.070312 C 533.25 208.320312 536.871094 252.574219 540.53125 296.816406 C 541.6875 310.765625 542.957031 324.703125 544.171875 338.648438 C 539.605469 343.847656 533.753906 342.683594 527.984375 341.933594 C 523.429688 340.621094 518.777344 339.808594 514.046875 339.40625 C 511.660156 339.023438 509.453125 338.25 507.722656 336.449219 C 503.832031 334.253906 504.359375 330.40625 504.023438 326.824219 C 503.640625 322.78125 504.96875 318.421875 501.945312 314.828125 Z M 501.945312 314.828125 " fill-opacity="1" fill-rule="nonzero"/><path fill="#2168b0" d="M 972.929688 357.847656 C 967.828125 356.914062 962.742188 355.898438 957.621094 355.082031 C 950.269531 353.914062 946.46875 350.03125 947.394531 342.304688 C 959.941406 342.265625 972.488281 342.160156 985.035156 342.21875 C 990.304688 342.246094 995.523438 342.34375 1000.019531 338.960938 C 995.570312 355.398438 993.203125 357.046875 972.929688 357.847656 Z M 972.929688 357.847656 " fill-opacity="1" fill-rule="nonzero"/><path fill="#1b3162" d="M 965.871094 297.75 C 965.792969 294.648438 965.707031 291.554688 965.628906 288.453125 C 967.519531 289.050781 969.644531 289.300781 971.246094 290.339844 C 973.285156 291.667969 974.902344 293.628906 977.457031 296.027344 C 973.363281 299.269531 969.398438 297.363281 965.871094 297.75 Z M 965.871094 297.75 " fill-opacity="1" fill-rule="nonzero"/><path fill="#c8c7c6" d="M 1141.957031 671.582031 C 1137.792969 671.101562 1134.496094 669.117188 1131.925781 665.851562 C 1129.597656 659.203125 1122.664062 654.089844 1125.234375 645.804688 C 1126.285156 643.414062 1128.191406 641.582031 1129.558594 639.40625 C 1135.722656 629.609375 1134.527344 627.269531 1122.890625 627.046875 C 1118.703125 626.96875 1114.59375 627.527344 1111.214844 624.300781 C 1097.882812 603.839844 1101.773438 595.976562 1127.6875 590.800781 C 1142.289062 581.171875 1125.332031 575.148438 1124.972656 567.230469 C 1125.105469 565.097656 1125.78125 563.144531 1127.003906 561.421875 C 1139.636719 543.703125 1146.96875 543.753906 1158.695312 561.640625 C 1166.390625 573.382812 1174.625 573.546875 1182.796875 562.105469 C 1183.703125 560.839844 1184.347656 559.394531 1185.246094 558.125 C 1189.792969 551.707031 1194.25 543.898438 1203.792969 549.453125 C 1213.449219 555.0625 1213.71875 563.15625 1207.488281 571.929688 C 1205.410156 574.851562 1202.886719 577.78125 1204.910156 581.804688 C 1212.285156 593.328125 1221.011719 583.242188 1229.089844 583.339844 C 1236.503906 590.214844 1239.929688 598.65625 1239.179688 608.753906 C 1239.324219 617.980469 1235.925781 625.609375 1228.878906 631.574219 C 1211.257812 623.480469 1211.257812 623.480469 1207.269531 636.582031 C 1207.335938 638.117188 1207.144531 639.746094 1207.777344 641.121094 C 1210.929688 647.980469 1219.730469 654.085938 1210.484375 662.492188 C 1201.578125 670.589844 1192.167969 673.40625 1181.742188 665.117188 C 1177.195312 660.996094 1178.832031 650.996094 1171.535156 650.839844 C 1164.15625 650.675781 1165.050781 660.378906 1160.949219 664.753906 C 1160.246094 665.503906 1159.640625 666.359375 1158.925781 667.121094 C 1154.324219 672.605469 1147.777344 670.707031 1141.957031 671.582031 Z M 1141.957031 671.582031 " fill-opacity="1" fill-rule="nonzero"/><path fill="#dedfdb" d="M 1126.097656 647.421875 C 1128.027344 653.570312 1133.28125 658.664062 1131.933594 665.851562 C 1116.644531 657.804688 1106.9375 645.589844 1103.90625 628.382812 C 1101.765625 625.386719 1103.660156 621.410156 1101.476562 618.425781 C 1096.796875 587.121094 1109.199219 563.078125 1135.179688 547 C 1160.371094 531.402344 1186.902344 532.847656 1211.707031 548.941406 C 1224.964844 557.539062 1235.636719 568.898438 1236.90625 586.171875 C 1237.003906 587.488281 1238.507812 588.695312 1239.355469 589.953125 C 1242.109375 595.765625 1240.386719 601.863281 1240.5 607.847656 C 1239.496094 609.683594 1238.089844 610.0625 1236.289062 609.011719 C 1237.4375 599.03125 1231.167969 591.824219 1226.902344 583.867188 C 1213.0625 574.898438 1213.0625 574.898438 1201.632812 583.90625 C 1194.78125 577.546875 1201.449219 574.078125 1204.5625 569.726562 C 1207.179688 566.070312 1211.128906 562.703125 1207.777344 557.328125 C 1202.132812 548.269531 1195.875 548.15625 1189.859375 557.351562 C 1187.585938 560.832031 1186.285156 565.003906 1183.773438 568.269531 C 1176.316406 577.992188 1162.960938 576.910156 1156.675781 566.332031 C 1145.175781 546.957031 1145.164062 546.941406 1129.824219 563.027344 C 1128.410156 564.511719 1127.359375 566.339844 1126.140625 568.007812 C 1129.078125 575.890625 1119.386719 580.03125 1120.523438 587.304688 C 1122.132812 589.851562 1124.894531 589.714844 1127.320312 590.28125 C 1129.304688 590.695312 1131.019531 591.59375 1132.378906 593.125 C 1129.527344 597.429688 1125.050781 596.160156 1121.007812 596.46875 C 1107.503906 597.515625 1103.789062 603.839844 1110 615.964844 C 1111.664062 619.210938 1113.765625 622.171875 1114.351562 625.859375 C 1120.285156 631.929688 1124.320312 639.066406 1126.097656 647.421875 Z M 1126.097656 647.421875 " fill-opacity="1" fill-rule="nonzero"/><path fill="#dfdedc" d="M 1236.28125 609.003906 C 1237.207031 609.003906 1238.140625 609.003906 1239.066406 609.003906 C 1241.859375 614.300781 1241.328125 619.667969 1239.429688 625.070312 C 1228.628906 668.90625 1182.714844 690.820312 1141.957031 671.582031 C 1146.207031 666.667969 1153.648438 669.519531 1158.050781 664.976562 C 1158.734375 665.023438 1159.410156 665.0625 1160.09375 665.101562 C 1166.921875 665.101562 1173.75 664.90625 1180.582031 665.160156 C 1181.265625 665.246094 1181.941406 665.34375 1182.625 665.445312 C 1184.582031 665.042969 1187.441406 663.605469 1188.347656 664.398438 C 1195.066406 670.261719 1200.527344 666.863281 1205.9375 662.574219 C 1213.496094 656.574219 1213.488281 655.261719 1206.851562 647.199219 C 1204.515625 644.359375 1199.554688 642.046875 1204.3125 637.324219 C 1214.34375 644.28125 1218.929688 632.269531 1226.585938 630.945312 C 1230.820312 624.070312 1236.128906 617.679688 1236.28125 609.003906 Z M 1236.28125 609.003906 " fill-opacity="1" fill-rule="nonzero"/><path fill="#c8c7c6" d="M 1239.429688 625.070312 C 1239.308594 619.714844 1239.191406 614.359375 1239.066406 609.003906 C 1239.160156 602.652344 1239.25 596.304688 1239.351562 589.953125 C 1244.140625 601.648438 1243.707031 613.355469 1239.429688 625.070312 Z M 1239.429688 625.070312 " fill-opacity="1" fill-rule="nonzero"/><path fill="#c8c7c6" d="M 1101.46875 618.425781 C 1104.734375 621.148438 1104.433594 624.734375 1103.902344 628.382812 C 1101.109375 625.554688 1100.859375 622.101562 1101.46875 618.425781 Z M 1101.46875 618.425781 " fill-opacity="1" fill-rule="nonzero"/><path fill="#e0e0de" d="M 360.386719 622.835938 C 352.550781 659.386719 321.699219 681.449219 282.917969 678.242188 C 250.390625 675.550781 222.65625 645.996094 220.699219 611.9375 C 218.679688 576.890625 243.472656 543.867188 277.734375 537.933594 C 322.363281 530.207031 354.359375 559.582031 360.378906 592.054688 C 361.917969 602.308594 361.902344 612.574219 360.386719 622.835938 Z M 360.386719 622.835938 " fill-opacity="1" fill-rule="nonzero"/><path fill="#cacaca" d="M 360.386719 622.835938 C 359.480469 612.578125 359.503906 602.316406 360.378906 592.054688 C 364.445312 602.308594 364.21875 612.574219 360.386719 622.835938 Z M 360.386719 622.835938 " fill-opacity="1" fill-rule="nonzero"/><path fill="#2888e5" d="M 507.722656 336.457031 C 509.65625 336.460938 511.585938 336.460938 513.519531 336.46875 C 517.691406 338.527344 522.445312 336.460938 526.636719 338.320312 C 532.480469 338.433594 538.324219 338.539062 544.171875 338.648438 C 547.40625 340.609375 550.996094 341.109375 554.683594 341.34375 C 590.09375 343.664062 625.523438 345.832031 660.917969 348.40625 C 698.378906 351.128906 735.800781 354.300781 773.25 357.179688 C 804.988281 359.617188 836.785156 361.382812 868.460938 364.398438 C 902.722656 367.660156 937.195312 368.546875 971.304688 373.453125 C 972.730469 371.824219 974.25 371.726562 975.859375 373.171875 C 985.0625 373.359375 994.257812 373.550781 1003.449219 373.75 C 1004.824219 400.304688 1006.222656 426.855469 1009.371094 453.28125 C 1011.6875 472.703125 1007.703125 491.914062 1005.882812 511.035156 C 1003.714844 533.75 999.730469 556.449219 994.019531 578.691406 C 993.527344 580.613281 992.265625 582.34375 991.359375 584.167969 C 985.109375 589.148438 977.667969 589.167969 970.417969 588.421875 C 893.667969 580.484375 816.507812 578.894531 739.566406 574.0625 C 689.695312 570.929688 639.800781 566.167969 589.707031 566.777344 C 580.871094 566.882812 571.84375 567.515625 564.152344 561.667969 C 550.8125 546.96875 539.125 530.96875 527.433594 514.964844 C 519.230469 503.730469 515.476562 491.253906 513.527344 477.429688 C 508.480469 441.707031 506.929688 405.878906 507.210938 369.898438 C 507.25 365.179688 506.441406 360.632812 505.371094 356.007812 C 503.839844 349.378906 503.207031 342.515625 507.722656 336.457031 Z M 507.722656 336.457031 " fill-opacity="1" fill-rule="nonzero"/><path fill="#1c6ab4" d="M 564.152344 561.660156 C 574.082031 561.746094 584.039062 562.335938 593.945312 561.832031 C 624.261719 560.273438 654.324219 564.859375 684.539062 565.882812 C 702.117188 566.476562 719.910156 566.921875 737.515625 568.40625 C 776.4375 571.679688 815.457031 572.90625 854.398438 575.261719 C 873.636719 576.421875 892.992188 575.859375 912.089844 578.007812 C 938.464844 580.976562 964.882812 582.84375 991.363281 584.167969 C 991.234375 586.785156 991.253906 589.414062 990.945312 592 C 988.539062 612.09375 988.519531 612.105469 968.019531 612.101562 C 860.261719 612.074219 752.496094 611.535156 644.742188 612.414062 C 620.832031 612.613281 602.253906 604.675781 586.011719 588.472656 C 583.0625 585.53125 579.835938 582.855469 576.738281 580.050781 C 575.726562 571.730469 566.714844 568.898438 564.152344 561.660156 Z M 564.152344 561.660156 " fill-opacity="1" fill-rule="nonzero"/><path fill="#2989e6" d="M 287.261719 410.949219 C 277.917969 420.535156 266.925781 425.707031 253.238281 423.628906 C 249.992188 421.128906 246.722656 418.644531 243.503906 416.113281 C 233.660156 408.382812 231.5625 397.867188 235.5 386.976562 C 239.574219 375.707031 247.945312 368.117188 260.835938 367.460938 C 265.460938 367.226562 270.113281 367.433594 274.753906 367.449219 C 275.292969 368.308594 275.664062 369.398438 276.417969 369.984375 C 290.46875 380.898438 293.617188 394.65625 287.261719 410.949219 Z M 287.261719 410.949219 " fill-opacity="1" fill-rule="nonzero"/><path fill="#2168b0" d="M 975.859375 373.171875 C 974.34375 373.261719 972.824219 373.355469 971.304688 373.453125 C 971.902344 369.597656 972.507812 365.734375 973.121094 361.890625 C 976.058594 365.167969 974.222656 369.589844 975.859375 373.171875 Z M 975.859375 373.171875 " fill-opacity="1" fill-rule="nonzero"/><path fill="#1a5194" d="M 526.636719 338.328125 C 522.0625 339.128906 517.507812 339.773438 513.519531 336.46875 C 518.09375 335.621094 522.621094 335.167969 526.636719 338.328125 Z M 526.636719 338.328125 " fill-opacity="1" fill-rule="nonzero"/><path fill="#1a1618" d="M 1126.097656 647.421875 C 1118.953125 641.980469 1117.308594 633.546875 1114.339844 625.839844 C 1119.203125 624.011719 1124.019531 621.949219 1129.355469 622.085938 C 1138.25 622.316406 1142.210938 629.492188 1137.289062 637.027344 C 1134.503906 641.3125 1131.378906 645.640625 1126.097656 647.421875 Z M 1126.097656 647.421875 " fill-opacity="1" fill-rule="nonzero"/><path fill="#151011" d="M 1226.578125 630.945312 C 1225.460938 632.671875 1224.300781 634.375 1223.226562 636.128906 C 1215.113281 649.457031 1214.921875 649.472656 1204.304688 637.316406 C 1203.972656 632.0625 1200.765625 625.601562 1207.515625 622.613281 C 1213.191406 620.097656 1219.585938 621.3125 1225.191406 624.039062 C 1227.90625 625.351562 1226.507812 628.53125 1226.578125 630.945312 Z M 1226.578125 630.945312 " fill-opacity="1" fill-rule="nonzero"/><path fill="#150e0e" d="M 1201.625 583.894531 C 1213.335938 563.066406 1213.613281 563.066406 1226.894531 583.855469 C 1227.09375 587.027344 1227.328125 590.304688 1222.808594 590.464844 C 1216.425781 590.6875 1209.445312 594.871094 1204.101562 587.847656 C 1203.164062 586.621094 1202.445312 585.222656 1201.625 583.894531 Z M 1201.625 583.894531 " fill-opacity="1" fill-rule="nonzero"/><path fill="#130e10" d="M 1158.058594 664.976562 C 1159.921875 659.609375 1161.140625 653.886719 1163.808594 648.953125 C 1167.496094 642.125 1174.980469 642.21875 1178.234375 649.175781 C 1180.582031 654.183594 1183.386719 659.4375 1182.625 665.445312 C 1182.625 665.445312 1182.632812 665.4375 1182.632812 665.4375 C 1174.332031 667.742188 1166.0625 668.722656 1157.90625 664.851562 Z M 1158.058594 664.976562 " fill-opacity="1" fill-rule="nonzero"/><path fill="#0f0a0a" d="M 1116.761719 590.351562 C 1114.503906 588.269531 1114.570312 586.304688 1116.335938 583.714844 C 1119.8125 578.625 1122.890625 573.25 1126.136719 567.992188 C 1129.902344 568.914062 1131.683594 572.265625 1133.964844 574.800781 C 1141.351562 583.03125 1141.199219 583.558594 1132.367188 593.105469 C 1130.570312 593.011719 1128.777344 592.921875 1126.984375 592.835938 C 1123.84375 590.949219 1119.804688 592.671875 1116.761719 590.351562 Z M 1116.761719 590.351562 " fill-opacity="1" fill-rule="nonzero"/><path fill="#141312" d="M 1158.925781 550.945312 C 1161.277344 548.242188 1164.558594 548.796875 1167.46875 548.925781 C 1172.429688 549.15625 1179.449219 546.277344 1181.84375 550.964844 C 1184.804688 556.777344 1178.871094 562.210938 1176.355469 567.691406 C 1174.246094 572.285156 1170.292969 571.007812 1166.984375 570.746094 C 1163.675781 570.484375 1161.601562 568.019531 1161.039062 564.636719 C 1160.292969 560.082031 1159.628906 555.515625 1158.925781 550.945312 Z M 1158.925781 550.945312 " fill-opacity="1" fill-rule="nonzero"/><path fill="#c8c7c6" d="M 1116.761719 590.351562 C 1120.410156 590.207031 1124.039062 590.140625 1126.988281 592.835938 C 1123.171875 593.710938 1119.472656 594.058594 1116.761719 590.351562 Z M 1116.761719 590.351562 " fill-opacity="1" fill-rule="nonzero"/><path fill="#c8c7c6" d="M 1157.914062 664.851562 C 1166.121094 666.457031 1174.390625 665.65625 1182.636719 665.4375 C 1174.277344 670.121094 1166.007812 671.128906 1157.914062 664.851562 Z M 1157.914062 664.851562 " fill-opacity="1" fill-rule="nonzero"/><path fill="#cacaca" d="M 278.246094 662.371094 C 267.125 669.195312 264.980469 668.953125 256.039062 660.679688 C 251.8125 656.773438 249.195312 651.902344 246.730469 646.871094 C 255.859375 627.074219 255.859375 627.074219 234.820312 625.65625 C 223.464844 608.074219 229.597656 597.691406 253.691406 595.785156 C 249.351562 592 243.0625 595.226562 240.441406 590.425781 C 254.386719 586.046875 254.296875 576.804688 249.003906 565.753906 C 252.007812 562.296875 254.839844 558.683594 258.042969 555.429688 C 264.050781 549.332031 268.128906 549.808594 272.421875 557.246094 C 274.191406 560.304688 274.730469 564.078125 276.492188 567.140625 C 281.066406 575.078125 286.710938 575.917969 296.71875 570.59375 C 296.4375 568.492188 297.5 567.449219 299.460938 567.101562 C 300.347656 568.386719 301.457031 569.609375 303.113281 568.894531 C 305.183594 568 305.664062 565.871094 306.386719 563.90625 C 308.472656 558.210938 309.234375 550.417969 316.832031 550.128906 C 324.375 549.847656 330.382812 554.558594 334.261719 561.285156 C 335.550781 563.519531 336.613281 565.882812 337.777344 568.183594 C 334.675781 576.449219 324.96875 582.25 328.53125 592.992188 C 332.855469 598.730469 339.085938 595.882812 344.507812 596.402344 C 355.179688 597.429688 359.378906 603.34375 355.59375 613.222656 C 353.953125 617.519531 350.113281 620.859375 349.632812 625.773438 C 340.785156 627.847656 331.480469 625.839844 322.738281 628.808594 C 321.65625 627.785156 320 626.566406 319.414062 628.625 C 317.105469 636.773438 321.574219 642.355469 327.328125 647.125 C 335.96875 654.289062 332.984375 655.464844 326.570312 662.699219 C 319.300781 670.898438 311.113281 665.207031 303.316406 665.492188 C 302.050781 664.625 301.039062 663.507812 300.289062 662.164062 C 292.652344 648.492188 292.65625 648.5 282.140625 660.167969 C 281.125 661.3125 279.730469 661.976562 278.246094 662.371094 Z M 278.246094 662.371094 " fill-opacity="1" fill-rule="nonzero"/><path fill="#151414" d="M 299.460938 567.09375 C 297.730469 567.617188 296.902344 568.855469 296.71875 570.589844 C 281.503906 570.304688 281.046875 569.800781 278.621094 550.5625 C 285.691406 545.246094 293.710938 548.078125 301.261719 548.421875 C 304.605469 548.570312 305.183594 552.382812 303.679688 555.609375 C 300.480469 558.78125 299.800781 562.875 299.460938 567.09375 Z M 299.460938 567.09375 " fill-opacity="1" fill-rule="nonzero"/><path fill="#1d1b1c" d="M 322.738281 628.816406 C 330.4375 616.574219 340.28125 623.347656 349.632812 625.78125 C 348.015625 628.945312 346.550781 632.207031 344.75 635.265625 C 341.964844 640.003906 339.617188 647.113281 333.414062 646.023438 C 328.1875 645.109375 325.585938 638.691406 323.941406 633.21875 C 323.5 631.765625 323.140625 630.285156 322.738281 628.816406 Z M 322.738281 628.816406 " fill-opacity="1" fill-rule="nonzero"/><path fill="#161314" d="M 278.246094 662.371094 C 280.195312 658.21875 281.917969 653.933594 284.152344 649.933594 C 288.609375 641.9375 294.953125 641.601562 298.804688 649.539062 C 301.175781 654.433594 304.546875 659.425781 303.324219 665.496094 C 303.324219 665.496094 303.238281 665.550781 303.238281 665.550781 C 294.917969 667.441406 286.605469 669.066406 278.515625 664.621094 C 278.808594 663.828125 278.71875 663.074219 278.246094 662.371094 Z M 278.246094 662.371094 " fill-opacity="1" fill-rule="nonzero"/><path fill="#171314" d="M 234.816406 625.660156 C 248.359375 620.292969 256.765625 620.195312 258.109375 626.273438 C 260.191406 635.695312 255.222656 642.585938 246.722656 646.871094 C 241.585938 640.457031 238.277344 633.011719 234.816406 625.660156 Z M 234.816406 625.660156 " fill-opacity="1" fill-rule="nonzero"/><path fill="#0f0b0a" d="M 328.53125 592.992188 C 322.382812 588.796875 320.019531 584.03125 326.441406 578.105469 C 330.132812 574.703125 332.132812 569.355469 337.769531 568.175781 C 340.773438 575.554688 347.84375 581.1875 347.195312 590.128906 C 343.390625 593.394531 338.125 590.109375 334.234375 593.007812 C 332.335938 593.007812 330.4375 593 328.53125 592.992188 Z M 328.53125 592.992188 " fill-opacity="1" fill-rule="nonzero"/><path fill="#161011" d="M 249 565.757812 C 251.527344 568.980469 254.078125 572.179688 256.582031 575.417969 C 259.191406 578.789062 261.300781 582.382812 258.796875 586.652344 C 256.410156 590.734375 252.46875 591.496094 248.089844 591.027344 C 245.546875 590.757812 242.984375 590.628906 240.433594 590.429688 C 237.582031 588.695312 235.734375 586.332031 237.707031 583.085938 C 241.28125 577.191406 242.914062 570.011719 249 565.757812 Z M 249 565.757812 " fill-opacity="1" fill-rule="nonzero"/><path fill="#cacaca" d="M 303.679688 555.613281 C 303.246094 552.816406 303.863281 549.207031 299.433594 549.1875 C 292.46875 549.15625 285.410156 547.894531 278.621094 550.570312 C 286.375 542.308594 295.765625 546.023438 304.355469 547.90625 C 307.40625 548.570312 306.480469 553.164062 303.679688 555.613281 Z M 303.679688 555.613281 " fill-opacity="1" fill-rule="nonzero"/><path fill="#cacaca" d="M 278.515625 664.621094 C 286.757812 664.933594 294.996094 665.242188 303.238281 665.550781 C 294.820312 669.925781 286.511719 671.316406 278.515625 664.621094 Z M 278.515625 664.621094 " fill-opacity="1" fill-rule="nonzero"/><path fill="#cacaca" d="M 334.242188 593.011719 C 338.117188 590.054688 342.785156 590.660156 347.203125 590.136719 C 343.730469 594.910156 338.894531 593.550781 334.242188 593.011719 Z M 334.242188 593.011719 " fill-opacity="1" fill-rule="nonzero"/><path fill="#125ca1" d="M 559.175781 402.019531 C 562.589844 383.113281 562.589844 383.066406 577.640625 382.949219 C 587.5625 382.867188 597.492188 382.902344 607.417969 382.941406 C 610.546875 382.953125 613.785156 382.691406 616.785156 383.386719 C 621.941406 384.582031 627.378906 393.484375 625.894531 398.144531 C 624.105469 403.753906 619.050781 401.894531 615.246094 401.9375 C 597.035156 402.125 578.816406 402.019531 559.175781 402.019531 Z M 559.175781 402.019531 " fill-opacity="1" fill-rule="nonzero"/></svg>