<svg xmlns="http://www.w3.org/2000/svg" xmlns:xlink="http://www.w3.org/1999/xlink" width="1920" zoomAndPan="magnify" viewBox="0 0 1440 809.999993" height="1080" preserveAspectRatio="xMidYMid meet" version="1.0"><defs><clipPath id="41043fe598"><path d="M 852 484 L 1085.363281 484 L 1085.363281 716.992188 L 852 716.992188 Z M 852 484 " clip-rule="nonzero"/></clipPath><clipPath id="cf36e96698"><path d="M 276 484 L 510 484 L 510 716.992188 L 276 716.992188 Z M 276 484 " clip-rule="nonzero"/></clipPath><clipPath id="c55328f7aa"><path d="M 225.863281 390 L 553 390 L 553 591 L 225.863281 591 Z M 225.863281 390 " clip-rule="nonzero"/></clipPath><clipPath id="3e167b5cda"><path d="M 756 38.242188 L 786 38.242188 L 786 98 L 756 98 Z M 756 38.242188 " clip-rule="nonzero"/></clipPath></defs><g clip-path="url(#41043fe598)"><path fill="#4f353c" d="M 968.761719 484.050781 C 904.40625 484.050781 852.238281 536.199219 852.238281 600.511719 C 852.238281 664.84375 904.40625 716.992188 968.761719 716.992188 C 1033.121094 716.992188 1085.285156 664.84375 1085.285156 600.511719 C 1085.285156 536.199219 1033.121094 484.050781 968.761719 484.050781 Z M 968.761719 674.492188 C 927.890625 674.492188 894.75 641.386719 894.75 600.511719 C 894.75 559.65625 927.890625 526.527344 968.761719 526.527344 C 1009.632812 526.527344 1042.773438 559.65625 1042.773438 600.511719 C 1042.773438 641.386719 1009.632812 674.492188 968.761719 674.492188 Z M 968.761719 674.492188 " fill-opacity="1" fill-rule="nonzero"/></g><path fill="#91999b" d="M 968.761719 520.789062 C 924.726562 520.789062 889.011719 556.496094 889.011719 600.511719 C 889.011719 644.546875 924.726562 680.230469 968.761719 680.230469 C 1012.816406 680.230469 1048.515625 644.546875 1048.515625 600.511719 C 1048.511719 556.496094 1012.816406 520.789062 968.761719 520.789062 Z M 968.761719 670.398438 C 930.164062 670.398438 898.847656 639.113281 898.847656 600.511719 C 898.847656 561.929688 930.164062 530.625 968.761719 530.625 C 1007.378906 530.625 1038.675781 561.929688 1038.675781 600.511719 C 1038.675781 639.113281 1007.378906 670.398438 968.761719 670.398438 Z M 968.761719 670.398438 " fill-opacity="1" fill-rule="nonzero"/><path fill="#91999b" d="M 990.394531 671.277344 C 980.941406 674.164062 970.769531 675.199219 960.316406 674 L 968.769531 600.511719 Z M 990.394531 671.277344 " fill-opacity="1" fill-rule="nonzero"/><path fill="#91999b" d="M 1042.777344 601.820312 C 1042.605469 611.699219 1040.449219 621.6875 1036.074219 631.253906 L 968.769531 600.511719 Z M 1042.777344 601.820312 " fill-opacity="1" fill-rule="nonzero"/><path fill="#91999b" d="M 992.882812 530.554688 C 1002.230469 533.773438 1011.066406 538.914062 1018.816406 546.027344 L 968.769531 600.511719 Z M 992.882812 530.554688 " fill-opacity="1" fill-rule="nonzero"/><path fill="#91999b" d="M 909.664062 555.96875 C 915.613281 548.078125 923.234375 541.265625 932.394531 536.09375 L 968.769531 600.511719 Z M 909.664062 555.96875 " fill-opacity="1" fill-rule="nonzero"/><path fill="#91999b" d="M 908.125 642.9375 C 902.457031 634.84375 898.328125 625.496094 896.242188 615.1875 L 968.769531 600.511719 Z M 908.125 642.9375 " fill-opacity="1" fill-rule="nonzero"/><path fill="#91999b" d="M 969.65625 574.339844 C 970.511719 574.371094 971.363281 574.441406 972.214844 574.558594 C 973.0625 574.671875 973.902344 574.824219 974.738281 575.023438 C 975.570312 575.21875 976.390625 575.457031 977.203125 575.730469 C 978.011719 576.007812 978.808594 576.324219 979.585938 576.679688 C 980.367188 577.035156 981.125 577.429688 981.867188 577.859375 C 982.609375 578.289062 983.324219 578.753906 984.019531 579.253906 C 984.714844 579.753906 985.386719 580.289062 986.027344 580.851562 C 986.671875 581.417969 987.285156 582.015625 987.867188 582.640625 C 988.453125 583.269531 989.003906 583.921875 989.523438 584.601562 C 990.042969 585.28125 990.527344 585.988281 990.980469 586.714844 C 991.429688 587.441406 991.84375 588.191406 992.21875 588.960938 C 992.597656 589.730469 992.9375 590.515625 993.234375 591.316406 C 993.535156 592.117188 993.796875 592.933594 994.015625 593.761719 C 994.234375 594.589844 994.414062 595.425781 994.550781 596.269531 C 994.6875 597.113281 994.785156 597.964844 994.835938 598.820312 C 994.890625 599.671875 994.902344 600.527344 994.875 601.382812 C 994.84375 602.238281 994.773438 603.09375 994.65625 603.941406 C 994.542969 604.789062 994.390625 605.628906 994.191406 606.464844 C 993.996094 607.296875 993.757812 608.117188 993.480469 608.929688 C 993.203125 609.738281 992.886719 610.535156 992.53125 611.3125 C 992.175781 612.089844 991.785156 612.851562 991.355469 613.589844 C 990.925781 614.332031 990.460938 615.050781 989.957031 615.746094 C 989.457031 616.4375 988.925781 617.109375 988.359375 617.75 C 987.792969 618.390625 987.195312 619.003906 986.570312 619.589844 C 985.941406 620.171875 985.289062 620.726562 984.609375 621.246094 C 983.929688 621.765625 983.222656 622.25 982.496094 622.699219 C 981.765625 623.148438 981.019531 623.5625 980.25 623.941406 C 979.480469 624.316406 978.695312 624.65625 977.890625 624.957031 C 977.089844 625.253906 976.273438 625.515625 975.445312 625.734375 C 974.617188 625.953125 973.78125 626.132812 972.9375 626.269531 C 972.089844 626.40625 971.242188 626.503906 970.386719 626.558594 C 969.53125 626.609375 968.675781 626.621094 967.820312 626.59375 C 966.964844 626.5625 966.109375 626.492188 965.261719 626.375 C 964.414062 626.261719 963.570312 626.109375 962.738281 625.910156 C 961.90625 625.714844 961.082031 625.476562 960.273438 625.203125 C 959.460938 624.925781 958.667969 624.609375 957.886719 624.253906 C 957.109375 623.898438 956.347656 623.503906 955.609375 623.074219 C 954.867188 622.644531 954.148438 622.179688 953.453125 621.679688 C 952.757812 621.179688 952.089844 620.644531 951.449219 620.082031 C 950.804688 619.515625 950.191406 618.917969 949.609375 618.292969 C 949.023438 617.664062 948.472656 617.011719 947.953125 616.332031 C 947.433594 615.652344 946.945312 614.945312 946.496094 614.21875 C 946.046875 613.492188 945.632812 612.742188 945.253906 611.972656 C 944.878906 611.203125 944.539062 610.417969 944.238281 609.617188 C 943.941406 608.816406 943.679688 608 943.460938 607.171875 C 943.242188 606.34375 943.0625 605.507812 942.925781 604.664062 C 942.789062 603.820312 942.691406 602.96875 942.636719 602.113281 C 942.582031 601.261719 942.570312 600.40625 942.601562 599.550781 C 942.632812 598.695312 942.703125 597.839844 942.816406 596.992188 C 942.929688 596.144531 943.085938 595.304688 943.28125 594.46875 C 943.480469 593.636719 943.714844 592.816406 943.992188 592.003906 C 944.269531 591.195312 944.585938 590.398438 944.941406 589.621094 C 945.296875 588.84375 945.691406 588.082031 946.121094 587.34375 C 946.550781 586.601562 947.015625 585.882812 947.515625 585.1875 C 948.015625 584.496094 948.550781 583.824219 949.117188 583.183594 C 949.683594 582.542969 950.277344 581.929688 950.90625 581.34375 C 951.53125 580.761719 952.1875 580.207031 952.867188 579.6875 C 953.546875 579.167969 954.253906 578.683594 954.980469 578.234375 C 955.707031 577.785156 956.457031 577.371094 957.226562 576.992188 C 957.996094 576.617188 958.78125 576.277344 959.582031 575.980469 C 960.386719 575.679688 961.203125 575.417969 962.027344 575.199219 C 962.855469 574.980469 963.695312 574.800781 964.539062 574.664062 C 965.382812 574.527344 966.234375 574.429688 967.089844 574.375 C 967.945312 574.324219 968.800781 574.3125 969.65625 574.339844 Z M 969.65625 574.339844 " fill-opacity="1" fill-rule="nonzero"/><g clip-path="url(#cf36e96698)"><path fill="#4f353c" d="M 392.636719 484.046875 C 328.277344 484.046875 276.113281 536.195312 276.113281 600.507812 C 276.113281 664.839844 328.277344 716.984375 392.636719 716.984375 C 456.992188 716.984375 509.160156 664.839844 509.160156 600.507812 C 509.160156 536.195312 456.992188 484.046875 392.636719 484.046875 Z M 392.636719 674.492188 C 351.765625 674.492188 318.625 641.382812 318.625 600.507812 C 318.625 559.652344 351.765625 526.523438 392.636719 526.523438 C 433.507812 526.523438 466.648438 559.652344 466.648438 600.507812 C 466.648438 641.382812 433.507812 674.492188 392.636719 674.492188 Z M 392.636719 674.492188 " fill-opacity="1" fill-rule="nonzero"/></g><path fill="#91999b" d="M 392.636719 520.785156 C 348.601562 520.785156 312.886719 556.492188 312.886719 600.507812 C 312.886719 644.542969 348.601562 680.226562 392.636719 680.226562 C 436.691406 680.226562 472.386719 644.542969 472.386719 600.507812 C 472.386719 556.492188 436.691406 520.785156 392.636719 520.785156 Z M 392.636719 670.394531 C 354.039062 670.394531 322.722656 639.109375 322.722656 600.507812 C 322.722656 561.925781 354.039062 530.621094 392.636719 530.621094 C 431.253906 530.621094 462.550781 561.925781 462.550781 600.507812 C 462.550781 639.109375 431.253906 670.394531 392.636719 670.394531 Z M 392.636719 670.394531 " fill-opacity="1" fill-rule="nonzero"/><path fill="#91999b" d="M 414.269531 671.269531 C 404.816406 674.160156 394.644531 675.195312 384.191406 673.992188 L 392.644531 600.507812 Z M 414.269531 671.269531 " fill-opacity="1" fill-rule="nonzero"/><path fill="#91999b" d="M 466.652344 601.816406 C 466.480469 611.695312 464.320312 621.683594 459.949219 631.25 L 392.644531 600.507812 Z M 466.652344 601.816406 " fill-opacity="1" fill-rule="nonzero"/><path fill="#91999b" d="M 416.757812 530.550781 C 426.105469 533.769531 434.941406 538.90625 442.691406 546.023438 L 392.644531 600.507812 Z M 416.757812 530.550781 " fill-opacity="1" fill-rule="nonzero"/><path fill="#91999b" d="M 333.539062 555.964844 C 339.488281 548.074219 347.105469 541.261719 356.269531 536.089844 L 392.644531 600.507812 Z M 333.539062 555.964844 " fill-opacity="1" fill-rule="nonzero"/><path fill="#91999b" d="M 332 642.933594 C 326.328125 634.839844 322.203125 625.492188 320.113281 615.179688 L 392.644531 600.507812 Z M 332 642.933594 " fill-opacity="1" fill-rule="nonzero"/><path fill="#91999b" d="M 394.273438 574.382812 C 395.128906 574.433594 395.980469 574.53125 396.824219 574.667969 C 397.671875 574.804688 398.507812 574.980469 399.335938 575.199219 C 400.164062 575.417969 400.980469 575.679688 401.78125 575.976562 C 402.585938 576.277344 403.371094 576.613281 404.140625 576.988281 C 404.910156 577.367188 405.660156 577.777344 406.386719 578.226562 C 407.117188 578.679688 407.820312 579.164062 408.503906 579.679688 C 409.183594 580.199219 409.839844 580.75 410.464844 581.335938 C 411.09375 581.917969 411.6875 582.53125 412.257812 583.171875 C 412.824219 583.8125 413.355469 584.480469 413.859375 585.175781 C 414.359375 585.871094 414.824219 586.589844 415.257812 587.328125 C 415.6875 588.066406 416.082031 588.828125 416.4375 589.605469 C 416.792969 590.386719 417.109375 591.179688 417.386719 591.988281 C 417.664062 592.800781 417.902344 593.621094 418.101562 594.453125 C 418.296875 595.285156 418.453125 596.128906 418.566406 596.976562 C 418.683594 597.824219 418.753906 598.675781 418.785156 599.53125 C 418.816406 600.386719 418.804688 601.242188 418.753906 602.097656 C 418.699219 602.953125 418.605469 603.800781 418.46875 604.648438 C 418.332031 605.492188 418.152344 606.328125 417.933594 607.15625 C 417.714844 607.984375 417.457031 608.800781 417.15625 609.601562 C 416.859375 610.402344 416.519531 611.191406 416.144531 611.957031 C 415.769531 612.726562 415.355469 613.476562 414.90625 614.207031 C 414.457031 614.933594 413.972656 615.640625 413.453125 616.320312 C 412.933594 617 412.382812 617.65625 411.796875 618.28125 C 411.214844 618.910156 410.601562 619.503906 409.960938 620.070312 C 409.316406 620.636719 408.648438 621.171875 407.953125 621.671875 C 407.261719 622.175781 406.542969 622.640625 405.800781 623.070312 C 405.0625 623.5 404.300781 623.894531 403.523438 624.25 C 402.746094 624.605469 401.949219 624.921875 401.140625 625.203125 C 400.328125 625.480469 399.507812 625.714844 398.675781 625.914062 C 397.839844 626.109375 397 626.265625 396.148438 626.382812 C 395.300781 626.496094 394.449219 626.570312 393.59375 626.597656 C 392.738281 626.628906 391.882812 626.621094 391.027344 626.566406 C 390.171875 626.511719 389.320312 626.417969 388.476562 626.28125 C 387.628906 626.144531 386.792969 625.96875 385.964844 625.746094 C 385.136719 625.527344 384.324219 625.269531 383.519531 624.972656 C 382.71875 624.671875 381.929688 624.335938 381.160156 623.957031 C 380.390625 623.582031 379.644531 623.167969 378.914062 622.71875 C 378.183594 622.269531 377.480469 621.785156 376.800781 621.265625 C 376.117188 620.746094 375.464844 620.195312 374.835938 619.613281 C 374.210938 619.03125 373.613281 618.417969 373.046875 617.777344 C 372.480469 617.132812 371.945312 616.464844 371.445312 615.773438 C 370.941406 615.078125 370.476562 614.359375 370.046875 613.621094 C 369.613281 612.878906 369.222656 612.121094 368.867188 611.34375 C 368.507812 610.5625 368.191406 609.769531 367.914062 608.960938 C 367.636719 608.148438 367.398438 607.328125 367.203125 606.496094 C 367.003906 605.660156 366.847656 604.820312 366.734375 603.972656 C 366.621094 603.125 366.546875 602.273438 366.515625 601.417969 C 366.484375 600.558594 366.496094 599.707031 366.550781 598.851562 C 366.601562 597.996094 366.695312 597.144531 366.835938 596.300781 C 366.972656 595.457031 367.148438 594.621094 367.367188 593.792969 C 367.585938 592.964844 367.84375 592.148438 368.144531 591.347656 C 368.445312 590.542969 368.78125 589.757812 369.15625 588.988281 C 369.535156 588.21875 369.945312 587.472656 370.398438 586.742188 C 370.847656 586.015625 371.332031 585.308594 371.851562 584.628906 C 372.371094 583.949219 372.921875 583.292969 373.503906 582.667969 C 374.085938 582.039062 374.699219 581.441406 375.34375 580.875 C 375.984375 580.308594 376.652344 579.777344 377.347656 579.273438 C 378.042969 578.773438 378.757812 578.308594 379.5 577.878906 C 380.238281 577.445312 381 577.054688 381.777344 576.699219 C 382.558594 576.34375 383.351562 576.023438 384.164062 575.746094 C 384.972656 575.46875 385.792969 575.230469 386.628906 575.035156 C 387.460938 574.835938 388.304688 574.679688 389.152344 574.566406 C 390 574.453125 390.851562 574.378906 391.707031 574.347656 C 392.566406 574.316406 393.421875 574.328125 394.273438 574.382812 Z M 394.273438 574.382812 " fill-opacity="1" fill-rule="nonzero"/><path fill="#c1cccf" d="M 968.769531 610.652344 C 964.671875 610.652344 960.8125 608.148438 959.28125 604.089844 L 913.316406 482.1875 C 911.339844 476.945312 913.988281 471.097656 919.226562 469.125 C 924.472656 467.148438 930.320312 469.796875 932.296875 475.035156 L 978.257812 596.9375 C 980.234375 602.175781 977.585938 608.023438 972.347656 610 C 971.167969 610.441406 969.960938 610.652344 968.769531 610.652344 Z M 968.769531 610.652344 " fill-opacity="1" fill-rule="nonzero"/><path fill="#fdb9b9" d="M 940.800781 501.644531 C 1006.570312 478.351562 1082.511719 537.246094 1078.03125 516.140625 C 1067.15625 464.890625 1014.746094 437.972656 959.445312 437.972656 C 881.078125 437.972656 810.300781 518.210938 823.765625 577.742188 C 830.160156 606.015625 878.28125 523.789062 940.800781 501.644531 Z M 940.800781 501.644531 " fill-opacity="1" fill-rule="nonzero"/><path fill="#fdb9b9" d="M 940.800781 501.644531 C 1006.570312 478.351562 1082.511719 537.246094 1078.03125 516.140625 C 1067.15625 464.890625 1014.746094 437.972656 959.445312 437.972656 C 881.078125 437.972656 810.300781 518.210938 823.765625 577.742188 C 830.160156 606.015625 878.28125 523.789062 940.800781 501.644531 Z M 940.800781 501.644531 " fill-opacity="1" fill-rule="nonzero"/><path fill="#fd9595" d="M 954.035156 438.113281 C 878.074219 441.667969 811 519.140625 823.664062 577.246094 C 854.785156 531.328125 900.636719 473.75 954.035156 438.113281 Z M 954.035156 438.113281 " fill-opacity="1" fill-rule="nonzero"/><path fill="#c1cccf" d="M 847.453125 126.863281 C 878.527344 121.230469 901.054688 169.761719 871.539062 193.445312 C 862.796875 193.832031 834.832031 143.75 847.453125 126.863281 Z M 847.453125 126.863281 " fill-opacity="1" fill-rule="nonzero"/><path fill="#4f353c" d="M 811.335938 147.375 C 809.972656 147.375 808.730469 146.453125 808.386719 145.070312 L 794.710938 90.390625 L 776.640625 79.652344 C 775.195312 78.792969 774.71875 76.925781 775.578125 75.484375 C 776.4375 74.039062 778.304688 73.566406 779.75 74.421875 L 798.910156 85.808594 C 799.605469 86.226562 800.109375 86.902344 800.304688 87.6875 L 814.289062 143.59375 C 814.695312 145.222656 813.703125 146.875 812.074219 147.28125 C 811.828125 147.34375 811.578125 147.375 811.335938 147.375 Z M 811.335938 147.375 " fill-opacity="1" fill-rule="nonzero"/><path fill="#fdb9b9" d="M 822.601562 249.738281 C 817.355469 241.199219 782.222656 163.550781 782.402344 160.054688 C 782.582031 156.527344 795.398438 146.152344 810.949219 138.316406 C 828.773438 129.332031 846.9375 123.234375 847.457031 126.863281 C 848.339844 133.058594 856.972656 170.539062 871.539062 193.445312 C 873.261719 196.15625 859.109375 202.375 855.808594 203.925781 C 859.109375 210.722656 864.546875 223.726562 866.878906 228.96875 C 867.070312 229.550781 822.601562 249.738281 822.601562 249.738281 Z M 822.601562 249.738281 " fill-opacity="1" fill-rule="nonzero"/><path fill="#fd9595" d="M 492.683594 384.65625 C 497.34375 429.691406 508.21875 560.140625 510.546875 577.222656 C 528.414062 605.953125 560.261719 641.671875 560.261719 641.671875 L 710.195312 641.671875 C 738.226562 641.671875 781.453125 627.050781 796.085938 603.148438 C 828.445312 550.285156 893.503906 457.257812 971.355469 417.265625 C 959.898438 353.140625 916.910156 258.996094 877.082031 224.113281 C 875.828125 223.015625 874.050781 222.769531 872.515625 223.417969 C 855.449219 230.675781 830.976562 243.59375 819.882812 248.769531 C 822.988281 273.617188 856.390625 346.605469 856.390625 390.089844 C 856.390625 433.574219 768.808594 541.140625 737.542969 558.585938 C 720.839844 567.90625 638.71875 567.515625 622.40625 549.269531 C 599.207031 523.316406 627.84375 459.195312 670.566406 415.714844 C 619.296875 403.289062 526.082031 386.984375 492.683594 384.65625 Z M 492.683594 384.65625 " fill-opacity="1" fill-rule="nonzero"/><path fill="#c1cccf" d="M 300.816406 576.445312 C 293.210938 579.613281 296.542969 615.269531 304.3125 621.09375 C 312.078125 626.917969 416.167969 644 458.890625 649.824219 C 472.484375 649.4375 545.113281 642.835938 564.921875 639.730469 C 560.648438 632.351562 555.601562 626.140625 549.773438 619.929688 C 536.570312 621.480469 503.167969 625.363281 496.566406 624.199219 C 489.960938 623.035156 486.078125 611.386719 479.863281 608.671875 C 473.652344 605.953125 305.476562 574.503906 300.816406 576.445312 Z M 300.816406 576.445312 " fill-opacity="1" fill-rule="nonzero"/><path fill="#e81a06" d="M 305.863281 452.984375 C 294.214844 456.089844 282.851562 459.683594 275.085938 462.011719 C 266.929688 469.386719 245.277344 492.972656 238.285156 502.292969 C 242.558594 505.785156 246.441406 510.058594 248.382812 511.609375 C 255.761719 503.84375 289.164062 464.632812 305.863281 452.984375 Z M 305.863281 452.984375 " fill-opacity="1" fill-rule="nonzero"/><path fill="#fdb9b9" d="M 855.8125 297.007812 L 883.527344 370.882812 C 891.441406 391.984375 887.824219 415.679688 873.96875 433.457031 L 760.199219 579.46875 C 744.757812 599.285156 703.777344 610.871094 678.648438 610.871094 L 534.625 610.871094 C 548.121094 628.050781 560.261719 641.671875 560.261719 641.671875 L 710.195312 641.671875 C 738.226562 641.671875 781.453125 627.050781 796.085938 603.148438 C 828.445312 550.285156 893.503906 457.257812 971.355469 417.265625 C 959.898438 353.140625 916.910156 258.996094 877.082031 224.113281 C 875.828125 223.015625 874.050781 222.765625 872.515625 223.417969 C 872.203125 223.726562 871.890625 224.035156 871.578125 224.347656 C 852.460938 243.324219 846.351562 271.789062 855.8125 297.007812 Z M 855.8125 297.007812 " fill-opacity="1" fill-rule="nonzero"/><g clip-path="url(#c55328f7aa)"><path fill="#fdb9b9" d="M 535.144531 590.683594 C 552.753906 539.433594 583.890625 403.207031 473.003906 391.382812 C 356.484375 378.960938 239.96875 496.46875 225.984375 545.128906 C 263.269531 551.339844 493.199219 583.953125 535.144531 590.683594 Z M 535.144531 590.683594 " fill-opacity="1" fill-rule="nonzero"/></g><path fill="#4f353c" d="M 418.601562 352.863281 L 418.238281 376.566406 C 418.164062 381.421875 421.695312 385.582031 426.496094 386.304688 L 674.269531 423.554688 C 688.628906 425.714844 695.71875 411.570312 691.917969 397.5625 L 690.300781 391.605469 C 684.226562 369.234375 664.75 353.085938 641.628906 351.265625 L 437.519531 335.652344 C 427.425781 334.855469 418.757812 342.742188 418.601562 352.863281 Z M 418.601562 352.863281 " fill-opacity="1" fill-rule="nonzero"/><path fill="#4f353c" d="M 797.355469 190.535156 C 797.355469 182.242188 790.628906 175.519531 782.335938 175.519531 C 774.042969 175.519531 767.320312 182.242188 767.320312 190.535156 C 767.320312 198.824219 774.042969 205.546875 782.335938 205.546875 C 790.628906 205.546875 797.355469 198.824219 797.355469 190.535156 Z M 797.355469 190.535156 " fill-opacity="1" fill-rule="nonzero"/><path fill="#4f353c" d="M 827.390625 176.554688 C 827.390625 168.265625 820.667969 161.542969 812.371094 161.542969 C 804.078125 161.542969 797.355469 168.265625 797.355469 176.554688 C 797.355469 184.847656 804.078125 191.570312 812.371094 191.570312 C 820.667969 191.570312 827.390625 184.847656 827.390625 176.554688 Z M 827.390625 176.554688 " fill-opacity="1" fill-rule="nonzero"/><path fill="#4f353c" d="M 776.582031 176.667969 L 805.984375 162.964844 L 817.640625 190.621094 L 788.417969 204.265625 Z M 776.582031 176.667969 " fill-opacity="1" fill-rule="nonzero"/><g clip-path="url(#3e167b5cda)"><path fill="#4f353c" d="M 756.972656 42.410156 L 766.164062 94.363281 C 766.601562 96.847656 769.457031 98.144531 771.558594 96.742188 C 780.484375 90.796875 787.410156 79.097656 785.183594 64.871094 C 781.976562 44.34375 768.332031 39.425781 760.960938 38.28125 C 758.574219 37.914062 756.550781 40.03125 756.972656 42.410156 Z M 756.972656 42.410156 " fill-opacity="1" fill-rule="nonzero"/></g></svg>